<?xml version="1.0" encoding="UTF-8" standalone="no"?>
<!-- Created with Inkscape (http://www.inkscape.org/) -->

<svg
   xmlns:dc="http://purl.org/dc/elements/1.1/"
   xmlns:cc="http://creativecommons.org/ns#"
   xmlns:rdf="http://www.w3.org/1999/02/22-rdf-syntax-ns#"
   xmlns:svg="http://www.w3.org/2000/svg"
   xmlns="http://www.w3.org/2000/svg"
   xmlns:sodipodi="http://sodipodi.sourceforge.net/DTD/sodipodi-0.dtd"
   xmlns:inkscape="http://www.inkscape.org/namespaces/inkscape"
   width="744.09448819"
   height="1052.3622047"
   id="svg2"
   version="1.1"
   inkscape:version="0.48.0 r9654"
   inkscape:export-filename="/home/ryan/workspace/symkat/static/logo.png"
   inkscape:export-xdpi="75.269997"
   inkscape:export-ydpi="75.269997"
   sodipodi:docname="logo.svg">
  <defs
     id="defs4" />
  <sodipodi:namedview
     id="base"
     pagecolor="#ffffff"
     bordercolor="#666666"
     borderopacity="1.0"
     inkscape:pageopacity="0.0"
     inkscape:pageshadow="2"
     inkscape:zoom="2"
     inkscape:cx="171.25035"
     inkscape:cy="768.37736"
     inkscape:document-units="px"
     inkscape:current-layer="layer1"
     showgrid="false"
     inkscape:window-width="1366"
     inkscape:window-height="715"
     inkscape:window-x="-4"
     inkscape:window-y="-1"
     inkscape:window-maximized="1" />
  <metadata
     id="metadata7">
    <rdf:RDF>
      <cc:Work
         rdf:about="">
        <dc:format>image/svg+xml</dc:format>
        <dc:type
           rdf:resource="http://purl.org/dc/dcmitype/StillImage" />
        <dc:title></dc:title>
      </cc:Work>
    </rdf:RDF>
  </metadata>
  <g
     inkscape:label="Layer 1"
     inkscape:groupmode="layer"
     id="layer1">
    <path
       style="fill:#147663;fill-opacity:1;stroke:none"
       d="m 129.40016,205.95007 c -0.33325,0.25112 -0.65357,0.52005 -0.97951,0.77718 0.85398,-0.0481 1.28242,0.0994 2.10067,0.29523 0.51647,0.10089 1.00065,0.31279 1.46373,0.54043 -0.61001,0.0975 -1.2206,0.23946 -1.81786,0.39163 -0.69808,0.0353 -1.38823,0.0705 -2.08731,0.086 -0.347,-0.0393 -0.76296,-0.056 -1.19393,-0.0785 -10.10905,8.57097 -16.38278,20.10833 -18.53907,32.36093 0.10268,0.0789 0.19976,0.16173 0.30051,0.2431 -0.17427,0.3567 -0.35285,0.7078 -0.52883,1.0637 -2.13803,14.11282 1.18766,29.04499 10.45648,41.34513 0.77003,1.02186 1.56867,2.01689 2.39425,2.96957 1.69858,-1.92189 1.93402,-1.85182 0.44935,-3.03853 -0.93159,-0.85795 -1.84446,-1.75661 -2.80587,-2.58114 0.18734,0.0947 0.38907,0.14647 0.55663,0.16749 0.28867,-0.62564 0.56023,-1.16185 0.81496,-1.6706 0.58226,0.63194 1.18176,1.25932 1.81668,1.83963 0.28995,0.17192 0.66838,0.79774 0.86369,0.52304 0.13778,-0.19373 0.28838,-0.38927 0.41742,-0.58845 -0.13577,-0.17352 -0.28641,-0.32923 -0.41986,-0.50533 -0.0229,0.0939 -0.0387,0.20393 -0.0868,0.3002 -0.0663,0.13272 -0.34934,0.47542 -0.29301,0.33812 0.10523,-0.25617 0.22023,-0.47993 0.32338,-0.71323 -0.0127,-0.0168 -0.025,-0.0332 -0.0376,-0.0499 -4.32189,-5.73535 -7.21755,-12.10995 -8.75494,-18.68017 -0.14515,0.28293 -0.27015,0.60526 -0.37909,0.95087 -0.0193,-0.0479 -0.0503,-0.0954 -0.0691,-0.14357 -1.26748,-3.27006 -1.82203,-6.7223 -1.84815,-10.18958 0.22967,-0.006 0.46407,0.003 0.69372,-0.0141 0.0773,-0.006 0.22254,-0.0106 0.33746,-0.0195 -0.20308,-5.19358 0.3971,-10.39008 1.78381,-15.39159 -0.0819,-0.0819 -0.17411,-0.15578 -0.25679,-0.23692 0.14114,-0.12476 0.29189,-0.23573 0.43045,-0.36343 1.45978,-5.02169 3.71687,-9.82344 6.73021,-14.22782 0.0169,-0.0433 0.0454,-0.0819 0.0622,-0.12515 2.9759,-4.32357 6.68878,-8.24895 11.11123,-11.58151 3.47342,-2.6174 7.17621,-4.71873 11.01696,-6.30628 0.63381,-0.48637 1.26847,-0.98704 1.90294,-1.47303 -0.25649,0.35917 -0.53641,0.70419 -0.81638,1.0456 1.93015,-0.74518 3.90105,-1.35689 5.88331,-1.85086 -0.0913,-0.076 -0.16252,-0.15436 -0.23179,-0.25575 -0.0944,-0.1386 -0.14124,-0.31788 -0.20108,-0.47455 -0.0265,-0.46662 -0.0395,-0.48768 0.0666,-0.95015 0.0273,-0.11927 0.0516,-0.21568 0.093,-0.34397 0.20304,-0.49379 0.37532,-0.94129 0.55309,-1.395 0.26929,-0.31036 0.532,-0.5931 0.81673,-0.88936 0.98689,-0.51871 2.06415,0.12833 2.9264,0.61211 0.87538,0.4709 1.72105,1.00174 2.49739,1.60058 -0.007,0.30929 -0.0306,0.62229 -0.0416,0.93135 8.56935,-0.96429 17.24741,0.30338 25.18966,3.67406 -0.26067,-0.20652 -0.52448,-0.41367 -0.78267,-0.62323 0.41776,-0.71832 0.7927,-1.42222 0.91408,-2.05833 2.51588,0.16656 5.02507,0.70136 7.4095,1.42068 0.76057,0.22945 1.51553,0.47983 2.25799,0.76362 -5.39764,-3.40624 -11.3021,-5.82043 -17.4226,-7.1792 -0.0862,0.0625 -0.16166,0.12682 -0.24957,0.18806 -0.15616,-0.11534 -0.32836,-0.23105 -0.48827,-0.33639 -9.78338,-2.03123 -20.09999,-1.42596 -29.73923,2.02379 -0.009,0.006 -0.0164,0.0128 -0.0249,0.0188 -0.14655,0.10167 -0.27598,0.2205 -0.42427,0.31972 -1.54451,1.11742 -3.66575,2.87077 -5.41681,3.61231 -0.13685,0.0579 -0.29388,0.0558 -0.43729,0.0947 -0.51929,-0.0922 -1.01174,-0.28829 -1.48869,-0.52162 -2.32589,1.27189 -4.59144,2.71645 -6.77137,4.35914 z m 33.65234,-10.02019 c 0.82768,0.60971 1.6099,1.25309 2.41057,1.90078 -0.29253,-0.0914 -0.58408,-0.18488 -0.87564,-0.27926 -0.69653,-0.22546 -1.16224,-0.38258 -1.61998,-0.54008 0.0268,-0.0643 0.0665,-0.12339 0.0934,-0.18767 0.11294,-0.2713 0.0663,-0.60724 -0.008,-0.89373 z m -54.12152,45.63551 c 0.003,0.0524 -0.002,0.10362 4e-4,0.15622 -0.16085,0.46563 -0.35818,0.91381 -0.52813,1.3762 0.0209,-0.45626 0.38211,-1.26943 0.52777,-1.53245 z m 76.41127,-36.4111 c -0.0284,0.0636 -0.0647,0.12428 -0.0934,0.18767 0.0333,0.017 0.0731,0.0202 0.1063,0.0372 -0.008,-0.0791 -0.002,-0.14228 -0.013,-0.22497 z m 0.013,0.22497 c 0.16981,0.0871 0.3255,0.20349 0.49442,0.29263 -0.13495,-0.25236 -0.26219,-0.57706 -0.38844,-0.41162 -0.0375,0.049 -0.0692,0.071 -0.10601,0.11895 z m 3.07768,-1.57574 c -0.048,0.0462 -0.0828,0.10284 -0.11213,0.16275 -0.43999,0.90045 -0.84508,1.64254 -1.22587,2.37154 5.75769,3.25012 10.97372,7.6997 15.22399,13.29671 0.33315,0.0698 0.66645,0.12132 1.00042,0.18523 -0.12506,0.23227 -0.24704,0.47159 -0.36715,0.70709 8.46362,11.66065 11.17988,25.78014 8.6072,38.94305 0.79792,0.55377 1.65013,1.1109 2.27751,1.10109 0.22081,-0.003 0.52693,-0.007 0.6496,-0.17648 0.0358,0.37783 0.0726,0.75322 0.10882,1.13101 -0.24631,0.17433 -0.49628,0.34604 -0.74254,0.52047 -0.3009,-0.54968 -0.93928,-1.15906 -2.07962,-2.03278 -0.0932,-0.0637 -0.19383,-0.11315 -0.2879,-0.17435 -1.0081,4.96152 -2.77748,9.76753 -5.26139,14.25574 0.0534,0.0758 0.11667,0.14818 0.16926,0.22461 -0.54276,2.05717 -0.82636,3.18123 -1.58154,5.37861 -0.0182,0.0531 -0.0761,0.16794 -0.0995,0.23148 -0.14481,0.31673 -0.31175,0.67094 -0.41055,0.85718 -0.10762,0.20293 -0.21269,0.40318 -0.32989,0.60075 -0.42932,-0.58136 -0.86946,-1.14052 -1.32258,-1.70328 -2.78478,3.74683 -6.14098,7.17096 -10.05829,10.12287 -7.77012,5.8552 -16.70662,9.10032 -25.73387,9.88346 1.61664,1.4989 3.25873,2.99867 4.96,4.40124 4.44776,-0.76047 8.82895,-2.08154 13.05353,-3.96715 -0.39414,-0.66477 -0.84293,-1.3044 -1.29187,-1.92207 0.13649,-0.049 0.25359,-0.13525 0.29949,-0.22568 0.12084,-0.238 0.24931,-0.46759 0.36715,-0.70708 0.23473,0.20283 0.47288,0.40557 0.72009,0.59211 0.22988,0.17346 0.48049,0.31054 0.71359,0.47963 0.43084,0.2677 0.87213,0.52059 1.32049,0.76576 2.9685,-1.48164 5.85553,-3.23858 8.60048,-5.30705 3.62149,-2.72899 6.80401,-5.82713 9.5479,-9.19045 -0.45747,0.2043 -0.91722,0.41884 -1.37987,0.60938 0.0365,-0.0695 0.082,-0.13694 0.11831,-0.20648 0.0936,-0.18783 0.18829,-0.37429 0.27998,-0.56313 0.2778,-0.54652 0.53698,-1.09321 0.79,-1.6518 0.0206,-0.0455 0.0191,-0.0707 -0.006,-0.11245 1.03869,-2.30929 1.94704,-4.68438 2.75891,-7.08753 0.10141,0.0299 0.16628,0.0596 0.3002,0.0868 1.91299,-1.1403 2.85351,-3.04159 3.26954,-5.16369 0.34536,0.45333 0.8135,1.10531 1.4105,1.8718 4.05169,-9.05367 5.58161,-19.05869 4.44064,-28.89765 -0.25239,-0.25734 -0.50627,-0.50635 -0.76421,-0.75452 -0.0253,-0.29313 -0.0509,-0.58803 -0.077,-0.88108 0.16173,-0.3044 0.327,-0.60749 0.48542,-0.9136 -1.39181,-8.50628 -4.80136,-16.80881 -10.34866,-24.17032 -1.01394,-1.34555 -2.07467,-2.63603 -3.18377,-3.86153 -1.17578,-0.25251 -2.33367,-0.49769 -3.51414,-0.71702 -0.13264,-0.42892 -0.30212,-0.91356 -0.54102,-1.54877 -0.75987,-1.2189 -2.15356,-3.44112 -3.35339,-4.2424 -0.23362,-0.156 -0.63859,-0.55229 -0.78196,-0.31073 -0.15822,0.26657 -0.30333,0.53374 -0.44817,0.80727 -0.0123,-0.0165 -0.0252,-0.0335 -0.0376,-0.0499 -1.23552,-1.6135 -2.56997,-3.26275 -4.73291,-3.47676 -0.27719,0.0437 -0.582,0.025 -0.84346,0.12691 -0.18652,0.0727 -0.41119,0.16353 -0.55554,0.3013 z m -71.11275,74.28666 c 0.006,0.02 0.0354,0.0295 0.0376,0.0499 0.0135,0.12511 -0.11511,0.22416 -0.1805,0.33166 0.049,-0.1271 0.0928,-0.25483 0.14288,-0.38158 z m 0.41446,0.86156 c -0.0372,0.14664 -0.0307,0.2873 0.007,0.42499 -0.0455,-0.057 -0.0861,-0.11754 -0.13164,-0.1747 0.0468,-0.0797 0.0789,-0.1698 0.12443,-0.25029 z m 1.11255,0.0225 c -0.0381,0.1939 -0.0977,0.36975 -0.16748,0.55663 -0.0495,0.13258 -0.2851,0.49976 -0.23042,0.36927 0.12978,-0.30969 0.26673,-0.6168 0.3979,-0.9259 z m 5.77674,3.51189 c -0.99166,1.12791 -1.33853,2.89607 -1.75801,4.729 -0.10424,0.16082 -0.19898,0.32381 -0.29263,0.49442 10.40627,11.00838 24.55255,16.87696 38.93903,17.14287 0.25499,-0.6593 0.52094,-1.32722 0.77048,-1.98925 0.11643,-0.0373 0.23508,-0.0606 0.34976,-0.10704 0.26643,-0.10799 0.62834,-0.19376 0.75519,-0.45176 0.39735,-0.80784 0.73418,-1.62828 1.08192,-2.45871 -14.79679,0.57105 -29.60697,-5.44776 -39.84577,-17.35957 z m 82.80273,-62.20068 c 0.33007,0.007 0.65218,0.024 0.98126,0.004 -0.13724,0.24804 -0.28746,0.49172 -0.41706,0.7447 -0.18946,-0.25032 -0.37196,-0.50025 -0.5642,-0.74872 z m -44.47285,80.81994 c 0.0182,0.046 0.0343,0.0879 0.0253,0.13744 -0.0191,0.10493 -0.12736,0.17899 -0.19318,0.2629 0.054,-0.13288 0.11219,-0.26828 0.16784,-0.40038 z m 13.6072,-2.34965 c 0.36072,0.43665 0.71271,0.86719 1.06548,1.31008 -0.059,0.0344 -0.11799,0.089 -0.1747,0.13165 -0.41746,-0.28156 -0.80804,-0.58744 -1.21452,-0.88475 0.11651,-0.20661 0.22296,-0.38601 0.32374,-0.55698 z m 7.38655,-3.17928 c 0.0375,0.002 0.075,-0.009 0.11245,-0.006 -0.16138,0.36255 -0.30551,0.73199 -0.46627,1.09481 -0.006,-0.004 -0.0223,0.0206 -0.0249,0.0188 -0.0152,0.0342 -0.022,0.0721 -0.0372,0.1063 -0.0726,0.16391 -0.35226,0.61743 -0.28647,0.45066 0.22074,-0.55973 0.46878,-1.10959 0.70247,-1.6641 z"
       id="path3771"
       inkscape:connector-curvature="0" />
    <flowRoot
       xml:space="preserve"
       id="flowRoot3757"
       style="font-size:40px;font-style:normal;font-variant:normal;font-weight:500;font-stretch:normal;text-align:start;line-height:125%;letter-spacing:0px;word-spacing:0px;writing-mode:lr-tb;text-anchor:start;fill:#147663;fill-opacity:1;stroke:none;font-family:Brushstroke;-inkscape-font-specification:Brushstroke Medium"
       transform="matrix(1.1801062,-0.88927383,0.88927383,1.1801062,-294.56876,113.89578)"><flowRegion
         id="flowRegion3759"><rect
           id="rect3761"
           width="62.755726"
           height="46.315495"
           x="162.28101"
           y="233.53253"
           style="font-size:40px;font-style:normal;font-variant:normal;font-weight:500;font-stretch:normal;text-align:start;line-height:125%;writing-mode:lr-tb;text-anchor:start;fill:#147663;fill-opacity:1;font-family:Brushstroke;-inkscape-font-specification:Brushstroke Medium" /></flowRegion><flowPara
         id="flowPara3763">SK</flowPara></flowRoot>  </g>
</svg>
