<?xml version="1.0" encoding="UTF-8" standalone="no"?>
<!-- Created with Inkscape (http://www.inkscape.org/) -->

<svg
   xmlns:dc="http://purl.org/dc/elements/1.1/"
   xmlns:cc="http://creativecommons.org/ns#"
   xmlns:rdf="http://www.w3.org/1999/02/22-rdf-syntax-ns#"
   xmlns:svg="http://www.w3.org/2000/svg"
   xmlns="http://www.w3.org/2000/svg"
   xmlns:xlink="http://www.w3.org/1999/xlink"
   xmlns:sodipodi="http://sodipodi.sourceforge.net/DTD/sodipodi-0.dtd"
   xmlns:inkscape="http://www.inkscape.org/namespaces/inkscape"
   width="48"
   height="48"
   id="svg2"
   version="1.1"
   inkscape:version="0.48.2 r9819"
   sodipodi:docname="mylogo.svg"
   inkscape:export-filename="/home/ryan/workspace/SymKat-Blog/static/img/mylogo.png"
   inkscape:export-xdpi="172.5"
   inkscape:export-ydpi="172.5">
  <sodipodi:namedview
     id="base"
     pagecolor="#ffffff"
     bordercolor="#666666"
     borderopacity="1.0"
     inkscape:pageopacity="0.0"
     inkscape:pageshadow="2"
     inkscape:zoom="7.9195959"
     inkscape:cx="18.520023"
     inkscape:cy="17.036451"
     inkscape:document-units="px"
     inkscape:current-layer="layer1"
     showgrid="false"
     inkscape:window-width="1366"
     inkscape:window-height="717"
     inkscape:window-x="-4"
     inkscape:window-y="-1"
     inkscape:window-maximized="1" />
  <defs
     id="defs4">
    <linearGradient
       id="linearGradient4111">
      <stop
         style="stop-color:#93a0a7;stop-opacity:1;"
         offset="0"
         id="stop4113" />
      <stop
         style="stop-color:#e8ebec;stop-opacity:1;"
         offset="1"
         id="stop4115" />
    </linearGradient>
    <radialGradient
       inkscape:collect="always"
       xlink:href="#linearGradient4111"
       id="radialGradient4117"
       cx="17.678572"
       cy="21.035713"
       fx="17.678572"
       fy="21.035713"
       r="23.928572"
       gradientUnits="userSpaceOnUse" />
    <filter
       id="filter4163"
       x="-0.25"
       width="1.5"
       y="-0.25"
       height="1.5"
       inkscape:menu="Non realistic 3D shaders"
       inkscape:menu-tooltip="Non realistic frosted glass imitation"
       inkscape:label="Frosted glass"
       color-interpolation-filters="sRGB">
      <feGaussianBlur
         id="feGaussianBlur4165"
         result="result8"
         stdDeviation="7" />
      <feComposite
         id="feComposite4167"
         in2="result8"
         in="result8"
         operator="xor"
         result="result6" />
      <feDisplacementMap
         id="feDisplacementMap4169"
         in2="result6"
         result="result4"
         scale="75"
         yChannelSelector="A"
         xChannelSelector="A"
         in="result6" />
      <feComposite
         id="feComposite4171"
         in2="result4"
         k1="2"
         in="SourceGraphic"
         operator="arithmetic"
         result="result2" />
      <feComposite
         id="feComposite4173"
         in2="result2"
         operator="in"
         in="result6"
         result="fbSourceGraphic" />
    </filter>
    <filter
       id="filter4513"
       inkscape:label="Clouds"
       x="0"
       y="0"
       width="1"
       height="1"
       inkscape:menu="Overlays"
       inkscape:menu-tooltip="Airy, fluffy, sparse white clouds"
       color-interpolation-filters="sRGB">
      <feTurbulence
         id="feTurbulence4515"
         numOctaves="3"
         baseFrequency="0.040 0.107"
         type="fractalNoise" />
      <feColorMatrix
         id="feColorMatrix4517"
         result="result0"
         values="1 0 0 0 0 0 1 0 0 0 0 0 1 0 0 0 0 0 5 -2.7" />
      <feFlood
         id="feFlood4519"
         flood-opacity="1"
         flood-color="rgb(255,255,255)"
         result="result1" />
      <feComposite
         id="feComposite4521"
         in2="result0"
         operator="in"
         result="result2" />
      <feComposite
         id="feComposite4523"
         in2="SourceGraphic"
         operator="atop" />
    </filter>
  </defs>
  <metadata
     id="metadata7">
    <rdf:RDF>
      <cc:Work
         rdf:about="">
        <dc:format>image/svg+xml</dc:format>
        <dc:type
           rdf:resource="http://purl.org/dc/dcmitype/StillImage" />
        <dc:title></dc:title>
      </cc:Work>
    </rdf:RDF>
  </metadata>
  <g
     id="layer1"
     inkscape:groupmode="layer"
     inkscape:label="Layer 1"
     transform="translate(0,-1004.3622)">
    <path
       style="fill:#af8b8b;fill-opacity:1;stroke:#000000;stroke-width:0.25000000000000000;stroke-linecap:butt;stroke-linejoin:miter;stroke-miterlimit:4;stroke-opacity:1;stroke-dasharray:none;filter:url(#filter4513)"
       d="m 33.183354,1013.6561 c -1.479357,0.3984 -2.343571,1.8908 -3.986783,1.5697 -1.770057,0.1661 -3.617231,0.2273 -5.278941,0.8959 -1.370916,1.0561 -2.622479,2.511 -3.1275,4.1899 -0.453006,1.7126 -0.0309,3.5705 0.0097,5.2074 -0.992369,2.6287 -3.693553,4.5593 -6.508332,4.634 -2.50092,0.1694 -5.4639521,0.1504 -7.2032474,2.2725 -1.4677011,1.8684 -1.8012209,4.4768 -1.0596388,6.7026 0.8130352,1.5615 2.4949223,2.5667 4.2635362,2.5203 2.618798,0.1349 5.469599,0.082 7.67808,-1.5317 1.784949,-1.312 4.067766,-0.8685 6.093104,-1.3584 1.343613,-0.1867 4.436116,-2.6158 1.849279,-3.2246 -1.502167,-0.013 -2.965252,-0.3704 -4.429137,-0.6235 -2.962164,-0.082 -4.849386,2.5531 -6.924828,4.2426 -1.416857,1.1751 -3.444775,0.9303 -5.1615888,0.8007 -1.4684283,-0.4471 -2.2108248,-2.0088 -2.0044521,-3.4659 0.015309,-2.1479 1.8738572,-4.0489 4.0119569,-4.1702 2.904276,-0.4045 6.157772,-0.2985 8.533461,-2.3004 1.023634,-0.9222 1.903735,-1.9998 2.983029,-2.862 0.802796,0.8091 1.855658,1.5679 3.094308,0.8286 0.08122,1.3191 -0.749352,2.5987 -0.472213,3.8656 1.180622,1.2329 3.225342,0.3562 4.782321,0.6135 1.598142,0.054 3.243893,-0.1272 4.811354,0.1306 1.51753,0.9881 2.675517,-0.8781 1.179878,-1.8191 -0.417908,-2.4367 -3.288405,-1.8282 -4.906965,-1.0574 -1.151537,0.1913 -3.836548,1.3664 -2.8928,-0.8006 0.344273,-1.8072 2.713085,-1.888 3.739933,-3.3788 1.175307,-1.3704 2.705135,-2.0924 4.316941,-2.8068 1.451717,-0.309 2.544417,-1.3268 3.771909,-1.9201 1.910286,-1.08 0.867983,-4.2631 -0.840454,-5.1271 -1.560134,-1.1715 -3.66946,-0.7389 -5.265419,-1.8173 -0.333156,-0.1328 -0.698195,-0.216 -1.056516,-0.21 z"
       id="path4147"
       inkscape:connector-curvature="0" />
    <path
       sodipodi:type="arc"
       style="fill:url(#radialGradient4117);fill-opacity:1;stroke:#000000;stroke-width:1.25000000000000000;stroke-linecap:butt;stroke-linejoin:miter;stroke-miterlimit:4;stroke-opacity:1;stroke-dasharray:none;filter:url(#filter4163)"
       id="path4109"
       sodipodi:cx="23.928572"
       sodipodi:cy="23.892857"
       sodipodi:rx="23.928572"
       sodipodi:ry="23.928572"
       d="m 47.857143,23.892857 a 23.928572,23.928572 0 1 1 -47.857143,0 23.928572,23.928572 0 1 1 47.857143,0 z"
       transform="matrix(0.93454546,0,0,0.93454546,1.5662337,1006.9236)" />
  </g>
</svg>
